<?xml version="1.0" standalone="no"?>
<!DOCTYPE svg PUBLIC "-//W3C//DTD SVG 20010904//EN"
 "http://www.w3.org/TR/2001/REC-SVG-20010904/DTD/svg10.dtd">
<svg version="1.0" xmlns="http://www.w3.org/2000/svg"
 width="800.000000pt" height="800.000000pt" viewBox="0 0 800.000000 800.000000"
 preserveAspectRatio="xMidYMid meet">
<metadata>
Created by potrace 1.11, written by Peter Selinger 2001-2013
</metadata>
<g transform="translate(0.000000,800.000000) scale(0.100000,-0.100000)"
fill="#000000" stroke="none">
<path d="M0 4000 l0 -4000 4000 0 4000 0 0 4000 0 4000 -4000 0 -4000 0 0
-4000z m5480 896 c0 -1578 -4 -2460 -10 -2527 -69 -701 -357 -1188 -846 -1432
-246 -123 -520 -183 -890 -194 -658 -20 -1138 157 -1456 537 -214 255 -334
516 -400 865 -18 97 -21 161 -25 543 l-5 432 261 0 261 0 0 -307 c0 -170 5
-362 11 -428 32 -371 142 -634 347 -826 158 -148 373 -242 642 -280 109 -16
460 -16 570 0 338 48 611 182 756 374 89 117 166 307 209 511 50 247 48 140
52 2739 l4 2417 259 0 260 0 0 -2424z"/>
</g>
</svg>
